<svg width="51" height="28" viewBox="0 0 51 28" fill="none" xmlns="http://www.w3.org/2000/svg">
<path id="Vector" d="M33.4514 15.144V15.7198C33.4034 16.6535 32.509 17.3949 31.4127 17.3949C31.3644 17.3949 31.3165 17.3934 31.2691 17.3906L31.2755 17.3909C30.3362 17.3909 29.7222 16.9755 29.7222 16.3359C29.7222 15.7127 30.3129 15.3154 31.3562 15.2553L33.4514 15.144ZM35.9313 11.1549L39.004 18.4605C39.004 18.4659 38.8489 18.8979 38.8489 18.9106C38.748 19.504 38.1586 19.9547 37.4465 19.9547C37.4083 19.9547 37.3705 19.9533 37.3331 19.9508L37.338 19.9511C37.3083 19.952 37.2732 19.9524 37.2381 19.9524C37.0732 19.9524 36.9111 19.942 36.7527 19.9219L36.7707 19.9237V21.1374C36.9827 21.1583 37.23 21.1708 37.4805 21.172H37.4826C39.2463 21.172 40.0877 20.6033 40.8145 18.834L44.0021 11.1548H42.1576L40.0072 17.0937H39.9753L37.8226 11.1531L35.9313 11.1549ZM31.8088 11.0236C29.7051 11.0236 28.3962 11.9948 28.2984 13.3125H29.9495C30.1229 12.6892 30.7669 12.2329 31.5351 12.2329C31.6091 12.2329 31.6821 12.2371 31.7535 12.2454L31.7452 12.2446C32.8119 12.2446 33.4515 12.7293 33.4515 13.5402V14.1034L31.1205 14.2201C29.0995 14.3185 27.9585 15.1021 27.9585 16.3777C27.9595 17.5985 29.1138 18.5877 30.5375 18.5877C30.626 18.5877 30.7135 18.5839 30.7998 18.5764L30.7889 18.5772C30.8011 18.5774 30.8155 18.5774 30.8299 18.5774C31.9588 18.5774 32.9439 18.0491 33.4671 17.2652L33.4749 17.2524H33.5153V18.4533H35.1897V13.4237C35.1896 11.9604 33.8721 11.0236 31.8087 11.0236H31.8088ZM14.3753 10.3003C13.4191 10.3186 12.6116 10.8106 12.1441 10.8106C11.6447 10.8106 10.884 10.3294 10.0593 10.3423C8.93697 10.3671 7.96716 10.9043 7.45351 11.6903L7.44553 11.7036C7.13838 12.3312 6.95983 13.0607 6.95983 13.8258C6.95983 15.0816 7.44054 16.241 8.25274 17.1763L8.2403 17.1613C8.76942 17.8283 9.40683 18.5626 10.2463 18.5353C11.0389 18.5098 11.3513 18.0943 12.3139 18.0943C13.2787 18.0943 13.5592 18.5353 14.3964 18.5226C15.2677 18.5099 15.8138 17.8557 16.3408 17.1869C16.6957 16.7462 16.9915 16.2384 17.1982 15.6961L17.212 15.6543C16.2133 15.2719 15.5279 14.4312 15.5183 13.4522V13.4511C15.5324 12.5798 16.0708 11.819 16.8747 11.3888L16.8868 11.3828C16.363 10.7515 15.5273 10.3359 14.5767 10.3023L14.5707 10.3021C14.5057 10.2986 14.4405 10.2974 14.3752 10.2984L14.3753 10.3003ZM21.0776 9.75363H23.1643C23.2532 9.74261 23.3558 9.73632 23.4601 9.73632C24.6624 9.73632 25.6371 10.5722 25.6371 11.6032C25.6371 11.6507 25.635 11.6978 25.631 11.7443L25.6316 11.7382C25.6351 11.7782 25.6371 11.8248 25.6371 11.8718C25.6371 12.9065 24.659 13.7452 23.4525 13.7452C23.3486 13.7452 23.2465 13.739 23.1465 13.727L23.158 13.7282H21.0776V9.75363ZM19.2671 8.44339V18.4532H21.0776V15.0328H23.585C23.6445 15.0357 23.7141 15.0373 23.7842 15.0373C25.8296 15.0373 27.4876 13.6155 27.4876 11.8615C27.4876 11.8155 27.4865 11.7698 27.4842 11.7242L27.4845 11.7308C27.4873 11.6853 27.4888 11.6321 27.4888 11.5786C27.4888 9.84386 25.8488 8.43756 23.826 8.43756C23.7614 8.43756 23.6974 8.43893 23.6336 8.4418L23.6425 8.44148L19.2671 8.44339ZM14.5772 7.67804C13.8262 7.74275 13.1709 8.05007 12.7102 8.50596L12.7072 8.50902C12.2869 8.91117 12.0298 9.44535 12.0298 10.031C12.0298 10.0841 12.032 10.1367 12.0361 10.1889L12.0357 10.1818C12.049 10.182 12.0649 10.1822 12.0806 10.1822C12.8246 10.1822 13.4879 9.8862 13.9193 9.42412L13.9229 9.4201C14.3345 8.99871 14.5845 8.45082 14.5845 7.85294C14.5845 7.79196 14.5819 7.73158 14.5768 7.67179L14.5774 7.67981L14.5772 7.67804ZM4.56847 0.935433H46.9451C47.0854 0.935433 47.2235 0.939078 47.3638 0.940901C47.6494 0.945185 47.9248 0.966239 48.1941 1.00301L48.1607 0.999231C48.3894 1.03341 48.5942 1.09302 48.783 1.17545L48.7706 1.17053C49.1451 1.33595 49.4426 1.59105 49.6303 1.90271L49.6355 1.91214C49.7271 2.06408 49.7967 2.24039 49.8334 2.42627L49.8352 2.43698C49.8745 2.64032 49.8983 2.8761 49.9011 3.11621V3.11849C49.9053 3.23697 49.9074 3.35545 49.9074 3.47758V24.5286C49.9074 24.6471 49.9074 24.7655 49.9011 24.8858C49.8984 25.1288 49.8737 25.3652 49.8288 25.5955L49.833 25.5691C49.7353 26.1244 49.3341 26.5846 48.7816 26.8275L48.7705 26.8319C48.5946 26.91 48.3905 26.9697 48.1754 27.0016L48.1627 27.0032C47.9271 27.0371 47.6531 27.0582 47.3741 27.0616H47.3701L46.945 27.067H4.04993C3.90964 27.067 3.76733 27.0634 3.63347 27.0616C3.34917 27.0584 3.07358 27.0372 2.80448 26.9996L2.83658 27.0032C2.60701 26.9687 2.40152 26.9091 2.21165 26.8269L2.2244 26.8319C1.85003 26.6672 1.55292 26.4118 1.36672 26.0997L1.36167 26.0903C1.27027 25.9383 1.20066 25.762 1.16372 25.5762L1.16192 25.5653C1.12185 25.3629 1.09724 25.1278 1.0939 24.8885V24.8857C1.09117 24.7662 1.08982 24.6466 1.08986 24.527V3.47571C1.08986 3.35723 1.08986 3.23692 1.09411 3.11671C1.09942 2.87154 1.12397 2.63539 1.16654 2.40435L1.16213 2.43338C1.20273 2.23715 1.27213 2.06171 1.36778 1.89948L1.36194 1.91041C1.55484 1.58996 1.85242 1.3354 2.21579 1.17513L2.22685 1.17067C2.40327 1.0932 2.60797 1.0335 2.82361 1.00101L2.83674 0.999323C3.07374 0.965373 3.34917 0.944273 3.62975 0.940992H3.63363C3.77179 0.937347 3.91208 0.937347 4.05014 0.935524L4.56847 0.935433ZM4.56847 0.00242352C4.24687 0.00272732 3.92528 0.00454991 3.60371 0.00789175C3.26021 0.0126311 2.9283 0.0389714 2.60435 0.0853621L2.64315 0.0808048C1.65314 0.218564 0.834467 0.747364 0.398717 1.47289L0.390746 1.48761C0.25391 1.71446 0.15018 1.97772 0.0958175 2.25534L0.0931605 2.27119C0.0409768 2.51682 0.0101024 2.80036 0.00813622 3.08978V3.09123C0.003885 3.21816 0.00105086 3.34512 -0.000366211 3.47211V24.5323C-0.000366211 24.6598 0.00388495 24.7837 0.00601056 24.9095C0.0104212 25.2032 0.0410831 25.4878 0.096349 25.7654L0.0910348 25.7331C0.151615 26.0264 0.256567 26.2887 0.401374 26.5306L0.392871 26.5149C0.691519 27.0119 1.15203 27.4068 1.71457 27.656L1.73158 27.6629C1.99601 27.7804 2.30273 27.8704 2.62593 27.9192L2.64538 27.9216C2.93021 27.9645 3.26074 27.9909 3.59765 27.9945H3.60164L4.04376 28L47.3956 27.9945C47.7381 27.9908 48.0701 27.9645 48.3937 27.9171L48.3561 27.9216C48.6972 27.8707 49.0025 27.7813 49.2837 27.6574L49.2657 27.6647C49.8466 27.4089 50.3081 27.0131 50.5984 26.5296L50.6064 26.5149C50.7438 26.2881 50.8482 26.0249 50.9035 25.7474L50.9061 25.7313C50.9561 25.4871 50.9869 25.2036 50.9911 24.9147V24.9113C50.9954 24.7837 50.9975 24.6597 50.9975 24.5321L50.9996 24.0839V3.47006C50.9996 3.34246 50.9954 3.21851 50.9911 3.09274C50.9867 2.79904 50.9559 2.51445 50.9008 2.23693L50.9061 2.26914C50.6917 1.14278 49.6693 0.265411 48.374 0.0826732L48.3561 0.0805315C48.0703 0.0379687 47.7384 0.0115831 47.4001 0.00761848H47.3956C47.0748 -0.000158882 46.754 -0.00198148 46.433 0.00215024L4.56847 0.00242352Z" fill="black"/>
</svg>
