<svg width="40" height="41" viewBox="0 0 40 41" fill="none" xmlns="http://www.w3.org/2000/svg">
<path id="Vector" d="M40 20.627C40 9.23187 31.0413 0 20 0C8.95125 0 0 9.23187 0 20.627C0 30.9199 7.31125 39.4543 16.875 41V26.5908H11.7963V20.6283H16.875V16.0813C16.875 10.913 19.8563 8.05871 24.4263 8.05871C26.615 8.05871 28.9062 8.46093 28.9062 8.46093V13.5365H26.38C23.9 13.5365 23.125 15.1286 23.125 16.7594V20.627H28.6712L27.78 26.5895H23.125V40.9987C32.6813 39.453 40 30.9186 40 20.6257V20.627Z" fill="black"/>
</svg>
