<svg width="40" height="41" viewBox="0 0 40 41" fill="none" xmlns="http://www.w3.org/2000/svg">
<path id="Vector" fill-rule="evenodd" clip-rule="evenodd" d="M11.7544 0.123C13.8878 0.0227736 14.5678 0 20 0C25.4333 0 26.1122 0.0239104 28.2444 0.123C30.3744 0.22209 31.8289 0.569453 33.1011 1.07625C34.4355 1.59119 35.6442 2.39802 36.6433 3.44059C37.6605 4.46453 38.4478 5.70359 38.95 7.07136C39.4444 8.37539 39.7822 9.8662 39.88 12.0483C39.9778 14.235 40 14.932 40 20.5C40 26.068 39.9767 26.765 39.88 28.9518C39.7833 31.1337 39.4444 32.6246 38.95 33.9286C38.4389 35.276 37.7544 36.4205 36.6433 37.5594C35.6444 38.6021 34.4355 39.409 33.1011 39.9238C31.8289 40.4305 30.3744 40.7767 28.2456 40.877C26.1122 40.9773 25.4322 41 20 41C14.5678 41 13.8878 40.9761 11.7544 40.877C9.62556 40.7779 8.17111 40.4305 6.89889 39.9238C5.58444 39.3999 4.46778 38.6982 3.35667 37.5594C2.33935 36.5355 1.55215 35.2963 1.05 33.9286C0.555564 32.6246 0.217782 31.1337 0.12 28.9518C0.0222182 26.765 0 26.0691 0 20.5C0 14.9308 0.0233272 14.235 0.12 12.0495C0.216673 9.8662 0.555564 8.37539 1.05 7.07136C1.55238 5.70368 2.33953 4.46468 3.35667 3.44059C4.35562 2.39783 5.56446 1.59095 6.89889 1.07625C8.17111 0.569453 9.62556 0.223226 11.7544 0.123ZM28.0822 3.813C25.9733 3.71505 25.34 3.69341 20 3.69341C14.66 3.69341 14.0267 3.71505 11.9178 3.813C9.96778 3.90411 8.90889 4.2378 8.20444 4.51911C7.27111 4.89039 6.60444 5.33455 5.90444 6.05205C5.20556 6.76955 4.77111 7.45289 4.40889 8.40955C4.13444 9.13161 3.80889 10.217 3.72 12.2157C3.62444 14.3773 3.60333 15.0265 3.60333 20.5C3.60333 25.9735 3.62444 26.6226 3.72 28.7842C3.80889 30.783 4.13444 31.8684 4.40889 32.5905C4.72929 33.481 5.24035 34.2864 5.90444 34.948C6.54971 35.6286 7.33566 36.1525 8.20444 36.4809C8.90889 36.7623 9.96778 37.0959 11.9178 37.187C14.0267 37.285 14.6589 37.3066 20 37.3066C25.3411 37.3066 25.9733 37.285 28.0822 37.187C30.0322 37.0959 31.0911 36.7623 31.7956 36.4809C32.7289 36.1096 33.3956 35.6655 34.0956 34.948C34.7596 34.2866 35.2707 33.481 35.5911 32.5905C35.8656 31.8684 36.1911 30.783 36.28 28.7842C36.3756 26.6226 36.3967 25.9735 36.3967 20.5C36.3967 15.0265 36.3756 14.3773 36.28 12.2157C36.1911 10.217 35.8656 9.13161 35.5911 8.40955C35.2289 7.45289 34.7956 6.76955 34.0956 6.05205C33.3956 5.3357 32.7289 4.89039 31.7956 4.51911C31.0911 4.2378 30.0322 3.90411 28.0822 3.813ZM17.4464 26.8194C18.256 27.1632 19.1236 27.3401 20 27.3401C21.77 27.3401 23.4673 26.6194 24.7187 25.3367C25.9704 24.054 26.6735 22.3141 26.6735 20.5C26.6735 18.6859 25.9704 16.946 24.7187 15.6633C23.4673 14.3805 21.77 13.6598 20 13.6598C19.1236 13.6598 18.256 13.8368 17.4464 14.1805C16.6365 14.5243 15.901 15.0281 15.2813 15.6633C14.6616 16.2984 14.1701 17.0525 13.8347 17.8823C13.4993 18.7122 13.3267 19.6017 13.3267 20.5C13.3267 21.3983 13.4993 22.2878 13.8347 23.1177C14.1701 23.9475 14.6616 24.7016 15.2813 25.3367C15.901 25.9718 16.6365 26.4757 17.4464 26.8194ZM12.731 13.0492C14.6589 11.0731 17.2736 9.96298 20 9.96298C22.7265 9.96298 25.3413 11.0731 27.2691 13.0492C29.1969 15.0253 30.28 17.7055 30.28 20.5C30.28 23.2945 29.1969 25.9746 27.2691 27.9508C25.3413 29.9268 22.7265 31.037 20 31.037C17.2736 31.037 14.6589 29.9268 12.731 27.9508C10.8031 25.9746 9.72006 23.2945 9.72006 20.5C9.72006 17.7055 10.8031 15.0253 12.731 13.0492ZM32.5595 11.5329C33.0151 11.0658 33.2711 10.4322 33.2711 9.77166C33.2711 9.11106 33.0151 8.47753 32.5595 8.01043C32.1036 7.54333 31.4856 7.28091 30.8411 7.28091C30.1967 7.28091 29.5785 7.54333 29.1229 8.01043C28.6671 8.47753 28.4111 9.11106 28.4111 9.77166C28.4111 10.4322 28.6671 11.0658 29.1229 11.5329C29.5785 12 30.1967 12.2624 30.8411 12.2624C31.4856 12.2624 32.1036 12 32.5595 11.5329Z" fill="black"/>
</svg>
