<svg width="41" height="41" viewBox="0 0 41 41" fill="none" xmlns="http://www.w3.org/2000/svg">
<path id="Vector" d="M20.5 0C9.17896 0 0 9.18226 0 20.5C0 31.8244 9.17896 41 20.5 41C31.821 41 41 31.8244 41 20.5C41 9.18226 31.821 0 20.5 0ZM20.5 37.0323C11.3633 37.0323 3.96774 29.6398 3.96774 20.5C3.96774 11.3663 11.3636 3.96774 20.5 3.96774C29.6333 3.96774 37.0323 11.3635 37.0323 20.5C37.0323 29.6366 29.6398 37.0323 20.5 37.0323ZM29.3649 15.9371C29.3649 21.4797 23.3785 21.565 23.3785 23.6133V24.1371C23.3785 24.6849 22.9344 25.129 22.3866 25.129H18.6133C18.0655 25.129 17.6214 24.6849 17.6214 24.1371V23.4213C17.6214 20.4666 19.8615 19.2855 21.5543 18.3363C23.006 17.5225 23.8956 16.969 23.8956 15.8913C23.8956 14.4657 22.0772 13.5195 20.607 13.5195C18.6902 13.5195 17.8053 14.4269 16.5614 15.9968C16.2261 16.42 15.6141 16.4986 15.1838 16.1724L12.8838 14.4284C12.4617 14.1083 12.3671 13.5136 12.6653 13.0758C14.6183 10.2079 17.1059 8.59677 20.9789 8.59677C25.0352 8.59677 29.3649 11.763 29.3649 15.9371ZM23.9718 29.7581C23.9718 31.6724 22.4144 33.2298 20.5 33.2298C18.5856 33.2298 17.0282 31.6724 17.0282 29.7581C17.0282 27.8437 18.5856 26.2863 20.5 26.2863C22.4144 26.2863 23.9718 27.8437 23.9718 29.7581Z" fill="black"/>
</svg>
