<svg width="41" height="41" viewBox="0 0 41 41" fill="none" xmlns="http://www.w3.org/2000/svg">
<path id="Vector" d="M12.8937 41C28.3661 41 36.8266 25.2232 36.8266 11.5448C36.8266 11.0972 36.8266 10.6495 36.8039 10.2058C38.45 8.73977 39.8709 6.92471 41 4.84559C39.4655 5.68327 37.8376 6.23299 36.1705 6.47644C37.9258 5.18141 39.2392 3.14593 39.8665 0.74849C38.215 1.95503 36.4082 2.80535 34.5239 3.26271C33.2558 1.60321 31.5787 0.504351 29.752 0.136199C27.9253 -0.231953 26.051 0.151124 24.419 1.22615C22.7871 2.30117 21.4885 4.0082 20.7243 6.08307C19.9601 8.15794 19.7728 10.485 20.1915 12.704C16.8471 12.4978 13.5753 11.4283 10.5886 9.56485C7.60181 7.70142 4.96687 5.08576 2.8548 1.88768C1.77804 4.16613 1.44735 6.864 1.93006 9.43198C2.41278 12 3.6726 14.245 5.45303 15.7099C4.1236 15.6546 2.82414 15.2092 1.66286 14.4108V14.5427C1.66263 16.9302 2.33265 19.2445 3.55953 21.0939C4.7864 22.9433 6.49477 24.2142 8.39552 24.6915C7.15646 25.1069 5.85651 25.1671 4.59561 24.8674C5.13245 26.9257 6.17874 28.7258 7.58805 30.0159C8.99736 31.306 10.6991 32.0215 12.4552 32.0623C9.47377 34.936 5.79406 36.4929 2.00713 36.4832C1.33637 36.4837 0.666175 36.4356 0 36.3393C3.84625 39.3799 8.32234 40.9937 12.8937 40.988" fill="#1DA1F2"/>
</svg>
