<svg width="41" height="41" viewBox="0 0 41 41" fill="none" xmlns="http://www.w3.org/2000/svg">
<path id="Vector" d="M40.2232 13.5385C40.5355 13.2076 41 13.5172 41 14.0404V35.875C41 38.7044 39.2783 41 37.1562 41H3.84375C1.72168 41 0 38.7044 0 35.875V14.051C0 13.5172 0.456445 13.2182 0.776758 13.5492C2.57051 15.407 4.94883 17.7667 13.1168 25.6784C14.8064 27.3227 17.6572 30.782 20.5 30.7607C23.3588 30.7927 26.2656 27.2586 27.8912 25.6784C36.0592 17.7667 38.4295 15.3964 40.2232 13.5385ZM20.5 27.3333C22.3578 27.376 25.0324 24.2156 26.3777 22.913C37.0041 12.631 37.8129 11.7341 40.2633 9.17161C40.7277 8.69114 41 7.94375 41 7.15365V5.125C41 2.29557 39.2783 0 37.1562 0H3.84375C1.72168 0 0 2.29557 0 5.125V7.15365C0 7.94375 0.272266 8.68047 0.736719 9.17161C3.18711 11.7234 3.9959 12.631 14.6223 22.913C15.9676 24.2156 18.6422 27.376 20.5 27.3333Z" fill="black"/>
</svg>
