<svg width="54" height="24" viewBox="0 0 54 24" fill="none" xmlns="http://www.w3.org/2000/svg">
<g id="Group">
<path id="Vector" d="M19.0281 23.726L21.7524 0.475098H26.1099L23.3836 23.726H19.0281Z" fill="#0E4595"/>
<path id="Vector_2" d="M39.1266 0.976533C38.2634 0.505488 36.9106 0 35.2212 0C30.9154 0 27.8826 3.15348 27.8567 7.67306C27.8324 11.014 30.0219 12.8777 31.6748 13.9899C33.371 15.1297 33.9412 15.8565 33.933 16.874C33.9222 18.4326 32.5785 19.1444 31.326 19.1444C29.582 19.1444 28.6554 18.792 27.2243 17.9242L26.6627 17.5546L26.0512 22.7594C27.069 23.4086 28.951 23.9708 30.9052 24C35.4858 24 38.4594 20.8825 38.4932 16.0561C38.5095 13.4111 37.3486 11.3984 34.8345 9.73896C33.3115 8.66337 32.3787 7.94564 32.3886 6.85652C32.3886 5.89008 33.1781 4.85665 34.8842 4.85665C36.309 4.82447 37.3413 5.27639 38.1456 5.74743L38.536 6.01574L39.1266 0.976533Z" fill="#0E4595"/>
<path id="Vector_3" d="M50.3399 0.475098H46.9728C45.9297 0.475098 45.1491 0.889132 44.691 2.40322L38.2195 23.7109H42.7953C42.7953 23.7109 43.5434 20.8461 43.7126 20.2169C44.2126 20.2169 48.6578 20.2269 49.2933 20.2269C49.4236 21.041 49.8234 23.7109 49.8234 23.7109H53.8668L50.3399 0.475098ZM44.9976 15.4887C45.3581 14.1491 46.7338 8.98906 46.7338 8.98906C46.7082 9.05094 47.0916 7.64291 47.3115 6.76995L47.6061 8.77456C47.6061 8.77456 48.4404 14.3246 48.6148 15.4883H44.9976V15.4887Z" fill="#0E4595"/>
<path id="Vector_4" d="M0.0556663 0.475098L0 0.958764C1.72256 1.56521 3.26106 2.44295 4.60802 3.53484L8.47452 23.6887L13.0849 23.6813L19.9451 0.475098H15.329L11.0629 16.3305L10.6085 13.1082C10.5872 13.0086 10.5641 12.9089 10.5404 12.8089L9.05734 2.43806C8.79364 0.96578 8.02864 0.526407 7.08222 0.475098H0.0556663Z" fill="#0E4595"/>
</g>
</svg>
