<svg width="39" height="24" viewBox="0 0 39 24" fill="none" xmlns="http://www.w3.org/2000/svg">
<g id="&#240;&#159;&#166;&#134; icon &#34;MasterCard&#34;">
<path id="Vector" d="M7.78611 23.945V22.3505C7.78611 21.739 7.32794 21.3405 6.57591 21.3405C6.18093 21.3405 5.75831 21.447 5.46366 21.7897C5.23457 21.4971 4.9107 21.3405 4.41698 21.3405C4.23341 21.3341 4.05074 21.3647 3.88532 21.4296C3.71989 21.4946 3.57686 21.5918 3.46904 21.7127V21.3918H2.84735V23.9431H3.46904V22.4833C3.46904 22.0341 3.79608 21.8192 4.25425 21.8192C4.71242 21.8192 4.97389 22.0585 4.97389 22.4833V23.945H5.59558V22.4833C5.59558 22.0341 5.92262 21.8192 6.38079 21.8192C6.83896 21.8192 7.10043 22.0585 7.10043 22.4833V23.945H7.78611ZM17.9938 21.4201H16.8484V20.6501H16.2283V21.4201H15.5742V21.8692H16.2283V23.0679C16.2283 23.6524 16.4898 23.9983 17.275 23.9983C17.5724 23.9932 17.8639 23.9293 18.1242 23.8122L17.9275 23.363C17.751 23.4526 17.5463 23.4988 17.3382 23.4958C17.0111 23.4958 16.8476 23.3361 16.8476 23.0704V21.8487H17.993V21.4233L17.9938 21.4201ZM23.8173 21.3405C23.648 21.3374 23.4806 21.3701 23.3314 21.4354C23.1823 21.5006 23.0566 21.5961 22.9665 21.7127V21.3918H22.3449V23.9431H22.9665V22.5102C22.9665 22.0848 23.228 21.8192 23.6538 21.8192C23.7975 21.8239 23.94 21.8418 24.0788 21.8724L24.2755 21.3938C24.1255 21.363 23.9719 21.3452 23.8173 21.3405ZM15.0165 21.6061C14.6895 21.4201 14.2313 21.3405 13.7407 21.3405C12.9555 21.3405 12.465 21.6331 12.465 22.1381C12.465 22.5635 12.8252 22.8022 13.5116 22.8824L13.8387 22.9087C14.1989 22.962 14.428 23.0685 14.428 23.2013C14.428 23.3874 14.1665 23.5221 13.6752 23.5221C13.3 23.5284 12.9325 23.4352 12.6285 23.2565L12.3015 23.655C12.7596 23.9206 13.3157 23.9758 13.6444 23.9758C14.5607 23.9758 15.0513 23.6306 15.0513 23.1519C15.0513 22.7027 14.6563 22.4878 13.9714 22.4076L13.6444 22.3813C13.3497 22.355 13.0914 22.2748 13.0914 22.1156C13.0914 21.9295 13.3529 21.7948 13.7131 21.7948C14.1081 21.7948 14.4983 21.9276 14.695 22.0072L15.0165 21.6061ZM24.5046 22.6694C24.5046 23.4394 25.1263 23.9983 26.1406 23.9983C26.5987 23.9983 26.9258 23.9187 27.2528 23.7057L26.9258 23.3072C26.6942 23.4595 26.4061 23.5438 26.1082 23.5465C25.5552 23.5465 25.1263 23.2013 25.1263 22.6963C25.1263 22.1913 25.5497 21.8487 26.1082 21.8487C26.4061 21.8514 26.6942 21.9357 26.9258 22.088L27.2528 21.6896C26.9258 21.4772 26.5987 21.397 26.1406 21.397C25.1586 21.3437 24.5046 21.902 24.5046 22.6726V22.6694ZM20.1204 21.3405C19.204 21.3405 18.5823 21.8718 18.5823 22.6694C18.5823 23.467 19.2364 23.9983 20.1851 23.9983C20.6467 24.0062 21.0974 23.8842 21.4609 23.653L21.1339 23.2809C20.871 23.4463 20.55 23.5394 20.2175 23.5465C19.7925 23.5465 19.3344 23.3341 19.2696 22.8824H21.5928V22.67C21.5928 21.8724 21.0035 21.3411 20.1204 21.3411V21.3405ZM20.088 21.8192C20.5461 21.8192 20.8732 22.0585 20.9056 22.457H19.2048C19.3028 22.0848 19.5998 21.8192 20.088 21.8192ZM11.6142 22.6694V21.3938H10.9925V21.7146C10.7634 21.4753 10.4395 21.3424 9.97821 21.3424C9.09505 21.3424 8.44018 21.9007 8.44018 22.6713C8.44018 23.4419 9.09426 24.0002 9.97821 24.0002C10.4364 24.0002 10.7634 23.8674 10.9925 23.628V23.9488H11.6142V22.6694ZM9.09505 22.6694C9.09505 22.1907 9.45527 21.8192 10.077 21.8192C10.6663 21.8192 11.0249 22.1913 11.0249 22.6694C11.0249 23.1744 10.6299 23.5196 10.077 23.5196C9.45527 23.5459 9.09505 23.1474 9.09505 22.6694ZM33.2738 21.3405C33.1045 21.3374 32.937 21.3701 32.7879 21.4354C32.6388 21.5006 32.5131 21.5961 32.423 21.7127V21.3918H31.8013V23.9431H32.4222V22.5102C32.4222 22.0848 32.6837 21.8192 33.1095 21.8192C33.2532 21.8239 33.3957 21.8418 33.5345 21.8724L33.7312 21.3938C33.5812 21.363 33.4276 21.3452 33.273 21.3405H33.2738ZM30.8526 22.6694V21.3938H30.2309V21.7146C30.0018 21.4753 29.6779 21.3424 29.2166 21.3424C28.3334 21.3424 27.6786 21.9007 27.6786 22.6713C27.6786 23.4419 28.3327 24.0002 29.2166 24.0002C29.6748 24.0002 30.0018 23.8674 30.2309 23.628V23.9488H30.8526V22.6694ZM28.3334 22.6694C28.3334 22.1907 28.6937 21.8192 29.3154 21.8192C29.9047 21.8192 30.2633 22.1913 30.2633 22.6694C30.2633 23.1744 29.8683 23.5196 29.3154 23.5196C28.6937 23.5459 28.3334 23.1474 28.3334 22.6694ZM37.1674 22.6694V20.3838H36.5457V21.7127C36.3167 21.4733 35.9928 21.3405 35.5315 21.3405C34.6483 21.3405 33.9934 21.8987 33.9934 22.6694C33.9934 23.44 34.6475 23.9983 35.5315 23.9983C35.9896 23.9983 36.3167 23.8654 36.5457 23.6261V23.9469H37.1674V22.6694ZM34.6483 22.6694C34.6483 22.1907 35.0085 21.8192 35.6302 21.8192C36.2195 21.8192 36.5781 22.1913 36.5781 22.6694C36.5781 23.1744 36.1832 23.5196 35.6302 23.5196C35.0077 23.5465 34.6475 23.1481 34.6475 22.6694H34.6483Z" fill="black"/>
<path id="Vector_2" d="M14.2972 2.0459H25.6503V17.0877H14.2972V2.0459Z" fill="#FF5F00"/>
<g id="Group">
<path id="Vector_3" d="M15.4426 9.56715C15.443 8.12012 15.8464 6.69191 16.6226 5.38947C17.3988 4.08702 18.5277 2.94409 19.9248 2.04626C18.1873 0.936645 16.1006 0.24651 13.9031 0.0547432C11.7056 -0.137024 9.48597 0.177316 7.49802 0.961829C5.51006 1.74634 3.83396 2.96937 2.66132 4.49111C1.48868 6.01285 0.866821 7.77189 0.866821 9.56715C0.866821 11.3624 1.48868 13.1215 2.66132 14.6432C3.83396 16.1649 5.51006 17.388 7.49802 18.1725C9.48597 18.957 11.7056 19.2713 13.9031 19.0796C16.1006 18.8878 18.1873 18.1977 19.9248 17.088C18.5277 16.1902 17.3988 15.0473 16.6226 13.7448C15.8464 12.4424 15.443 11.0142 15.4426 9.56715Z" fill="#EB001B"/>
<path id="Vector_4" d="M38.9998 9.56738C39.0014 11.3613 38.3814 13.1194 37.2107 14.6406C36.04 16.1618 34.3658 17.3846 32.3797 18.1692C30.3936 18.9538 28.1758 19.2686 25.9798 19.0774C23.7838 18.8863 21.6984 18.1969 19.9621 17.0883C21.3595 16.1907 22.4886 15.0478 23.2649 13.7453C24.0411 12.4428 24.4444 11.0145 24.4444 9.56738C24.4444 8.12029 24.0411 6.69196 23.2649 5.38947C22.4886 4.08697 21.3595 2.94409 19.9621 2.04649C21.6984 0.937836 23.7838 0.24851 25.9798 0.0573502C28.1758 -0.133809 30.3936 0.180916 32.3797 0.965531C34.3658 1.75015 36.04 2.97297 37.2107 4.49414C38.3814 6.01532 39.0014 7.77342 38.9998 9.56738Z" fill="#F79E1B"/>
</g>
</g>
</svg>
