<svg width="60" height="24" viewBox="0 0 60 24" fill="none" xmlns="http://www.w3.org/2000/svg">
<g id="&#240;&#159;&#166;&#134; icon &#34;PayPal&#34;">
<path id="Vector" d="M10.1558 1.16459C9.40381 0.388825 8.42246 0 7.2118 0H2.52479C2.15365 0 1.94861 0.278519 1.90966 0.83502L0.00561028 18.7692C-0.0141779 18.9454 0.0151909 19.1064 0.093448 19.2529C0.171257 19.3996 0.269124 19.4726 0.38633 19.4726H2.61263C3.00311 19.4726 3.21773 19.1947 3.25713 18.6375L3.78434 13.8026C3.80359 13.5683 3.87226 13.3778 3.98947 13.2311C4.10659 13.0846 4.25307 12.9888 4.42884 12.9449C4.6046 12.9014 4.77034 12.8795 4.92686 12.8795C5.08292 12.8795 5.26836 12.8942 5.48352 12.9234C5.69814 12.9527 5.83496 12.9669 5.89361 12.9669C7.573 12.9669 8.8912 12.2569 9.84828 10.8352C10.8049 9.41416 11.2838 7.4437 11.2838 4.92306C11.2838 3.1943 10.9075 1.94157 10.1558 1.16459ZM7.73919 6.54957C7.64123 7.57537 7.38766 8.24903 6.97757 8.57149C6.56739 8.89434 5.98154 9.0549 5.22001 9.0549L4.25325 9.09883L4.75136 4.39544C4.79022 4.07339 4.9171 3.91217 5.13208 3.91217H5.68883C6.46961 3.91217 7.03631 4.08105 7.38784 4.41748C7.73919 4.75471 7.85639 5.46559 7.73919 6.54957Z" fill="#003087"/>
<path id="Vector_2" d="M59.6186 0H57.451C57.2357 0 57.1089 0.161228 57.0702 0.483681L55.166 18.7693L55.1366 18.8572C55.1366 19.0045 55.1757 19.143 55.254 19.2749C55.3317 19.4066 55.4297 19.4726 55.5468 19.4726H57.4804C57.8509 19.4726 58.056 19.1947 58.0956 18.6375L59.9996 0.659014V0.615349C59.9996 0.205161 59.8722 0 59.6186 0Z" fill="#009CDE"/>
<path id="Vector_3" d="M33.4298 7.07677C33.4298 6.9306 33.3905 6.79113 33.3129 6.65947C33.2345 6.52766 33.1465 6.46143 33.0492 6.46143H30.7935C30.5783 6.46143 30.4026 6.60868 30.2662 6.9009L27.1611 13.7584L25.8722 7.16491C25.7741 6.69641 25.5595 6.46143 25.2278 6.46143H23.0304C22.9325 6.46143 22.8447 6.52753 22.767 6.65947C22.6887 6.79113 22.6498 6.93073 22.6498 7.07677C22.6498 7.13589 22.8403 7.99993 23.221 9.67024C23.6017 11.341 24.0118 13.1432 24.4513 15.0774C24.8907 17.0112 25.12 18.0374 25.1397 18.1539C23.5382 21.4362 22.7377 23.1945 22.7377 23.4285C22.7377 23.8098 22.8645 24.0001 23.1185 24.0001H25.3742C25.5889 24.0001 25.7645 23.8539 25.9015 23.5607L33.3714 7.38445C33.4103 7.32627 33.4298 7.22416 33.4298 7.07677Z" fill="#003087"/>
<path id="Vector_4" d="M54.4336 6.461H52.2071C51.9336 6.461 51.768 6.94468 51.7095 7.91177C51.2011 6.74005 50.2741 6.15332 48.9263 6.15332C47.5202 6.15332 46.3238 6.94468 45.3379 8.52712C44.3515 10.1096 43.8586 11.9708 43.8586 14.1097C43.8586 15.839 44.1953 17.2162 44.869 18.2414C45.5428 19.2678 46.446 19.7799 47.579 19.7799C48.1452 19.7799 48.7213 19.6038 49.3071 19.2525C49.8931 18.9008 50.3516 18.4322 50.6841 17.8459C50.6841 17.8753 50.6643 18.007 50.6255 18.2413C50.5861 18.4761 50.5669 18.6523 50.5669 18.7688C50.5669 19.2382 50.6935 19.472 50.9477 19.472H52.9692C53.3397 19.472 53.5549 19.1941 53.6133 18.637L54.8145 7.16435C54.8337 6.98848 54.8045 6.82752 54.7266 6.6808C54.6482 6.53449 54.5508 6.461 54.4336 6.461ZM50.6108 15.1206C50.1128 15.8533 49.5123 16.2194 48.8093 16.2194C48.2427 16.2194 47.7842 15.9853 47.4324 15.5162C47.0808 15.0481 46.9051 14.4033 46.9051 13.5821C46.9051 12.4985 47.1491 11.5821 47.6375 10.8349C48.1252 10.0877 48.7311 9.71401 49.4538 9.71401C50.0001 9.71401 50.4542 9.95585 50.8159 10.4391C51.1769 10.9228 51.3579 11.5896 51.3579 12.4396C51.3578 13.4944 51.1087 14.3884 50.6108 15.1206Z" fill="#009CDE"/>
<path id="Vector_5" d="M21.1559 6.461H18.9295C18.6557 6.461 18.4901 6.94468 18.4314 7.91177C17.9041 6.74005 16.9764 6.15332 15.6484 6.15332C14.2423 6.15332 13.046 6.94468 12.0599 8.52712C11.0735 10.1096 10.5806 11.9708 10.5806 14.1097C10.5806 15.839 10.9176 17.2162 11.5913 18.2414C12.2651 19.2678 13.1681 19.7799 14.301 19.7799C14.8475 19.7799 15.4142 19.6038 16 19.2525C16.5858 18.9008 17.0546 18.4322 17.4061 17.8459C17.3278 18.1975 17.2889 18.5053 17.2889 18.7688C17.2889 19.2382 17.4158 19.472 17.6697 19.472H19.691C20.0617 19.472 20.2768 19.1941 20.3355 18.637L21.5364 7.16435C21.5557 6.98848 21.5265 6.82752 21.4486 6.6808C21.3704 6.53449 21.2728 6.461 21.1559 6.461ZM17.3329 15.1424C16.8348 15.8612 16.2243 16.2194 15.5021 16.2194C14.9354 16.2194 14.4814 15.9853 14.1399 15.5162C13.7979 15.0481 13.6272 14.4033 13.6272 13.5821C13.6272 12.4985 13.8712 11.5821 14.3596 10.8349C14.8475 10.0877 15.453 9.71401 16.1758 9.71401C16.7224 9.71401 17.1764 9.95585 17.5381 10.4391C17.8991 10.9228 18.08 11.5896 18.08 12.4396C18.08 13.5238 17.831 14.4252 17.3329 15.1424Z" fill="#003087"/>
<path id="Vector_6" d="M43.4337 1.16459C42.6817 0.388825 41.7006 0 40.4897 0H35.832C35.4412 0 35.2263 0.278519 35.1875 0.83502L33.2835 18.7692C33.2637 18.9454 33.2929 19.1064 33.3713 19.2529C33.4488 19.3996 33.547 19.4726 33.6642 19.4726H36.0661C36.3005 19.4726 36.4566 19.2823 36.5349 18.9013L37.0623 13.8026C37.0816 13.5683 37.15 13.3778 37.2673 13.2311C37.3845 13.0846 37.5308 12.9888 37.7068 12.9449C37.8824 12.9014 38.0482 12.8795 38.2048 12.8795C38.3609 12.8795 38.5463 12.8942 38.7612 12.9234C38.976 12.9527 39.1131 12.9669 39.1713 12.9669C40.8509 12.9669 42.1689 12.2569 43.126 10.8352C44.0829 9.41416 44.5614 7.4437 44.5614 4.92306C44.5615 3.1943 44.1854 1.94157 43.4337 1.16459ZM40.4311 8.39561C40.0014 8.83509 39.3569 9.05476 38.4978 9.05476L37.5603 9.0987L38.0584 4.39531C38.0971 4.07326 38.2239 3.91203 38.4391 3.91203H38.9662C39.3957 3.91203 39.7375 3.94132 39.9918 3.99977C40.2453 4.05875 40.4897 4.24147 40.7241 4.54915C40.9586 4.85682 41.0756 5.30396 41.0756 5.88988C41.0756 7.12085 40.8605 7.95573 40.4311 8.39561Z" fill="#009CDE"/>
</g>
</svg>
